Coordinates
version=1
nRows=49
nColumns=12
inDegrees=yes

Units are S.I. units (second, meters, Newtons, ...)
Angles are in degrees

endheader
time	SC_y	SC_z	SC_x	AC_y	AC_z	AC_x	GH_y	GH_z	GH_yy	EL_x	PS_y
       0.0               -43.4          27.95          81.54           43.6          9.233          8.261         -12.09          61.94          76.33          90.57          119.8
   0.04199               -43.4          27.95          81.53           43.6          9.232          8.259         -12.09          61.93          76.31          90.57          119.8
   0.08398              -43.41          27.95          81.52           43.6          9.232          8.256         -12.08          61.92          76.28          90.57          119.8
     0.126              -43.41          27.94          81.52           43.6          9.231          8.254         -12.08          61.91          76.26          90.58          119.8
     0.168              -43.41          27.94          81.51           43.6           9.23          8.252         -12.08           61.9          76.23          90.58          119.8
      0.21              -43.41          27.94           81.5           43.6          9.229          8.249         -12.07           61.9           76.2          90.58          119.8
     0.252              -43.42          27.94          81.49           43.6          9.228          8.246         -12.07          61.89          76.17          90.58          119.8
    0.2939              -43.42          27.93          81.48          43.59          9.226          8.244         -12.06          61.88          76.14          90.59          119.8
    0.3359              -43.42          27.93          81.47          43.59          9.225           8.24         -12.06          61.86          76.11          90.59          119.8
    0.3779              -43.43          27.92          81.46          43.59          9.224          8.237         -12.05          61.85          76.07           90.6          119.8
    0.4199              -43.43          27.92          81.45          43.59          9.222          8.233         -12.05          61.84          76.03           90.6          119.8
    0.4619              -43.44          27.92          81.44          43.59          9.221           8.23         -12.04          61.83          75.99           90.6          119.8
    0.5039              -43.44          27.91          81.42          43.58          9.219          8.225         -12.03          61.81          75.95          90.61          119.8
    0.5459              -43.45          27.91          81.41          43.58          9.217          8.221         -12.03          61.79           75.9          90.61          119.8
    0.5879              -43.45           27.9          81.39          43.58          9.215          8.216         -12.02          61.78          75.84          90.62          119.8
    0.6299              -43.46          27.89          81.37          43.58          9.213          8.211         -12.01          61.76          75.79          90.63          119.8
    0.6719              -43.47          27.89          81.35          43.57          9.211          8.205          -12.0          61.74          75.72          90.63          119.8
    0.7139              -43.47          27.88          81.33          43.57          9.208          8.199         -11.99          61.72          75.66          90.64          119.8
    0.7559              -43.48          27.87          81.31          43.56          9.206          8.192         -11.98          61.69          75.58          90.65          119.7
    0.7978              -43.49          27.86          81.29          43.56          9.203          8.184         -11.96          61.66           75.5          90.66          119.7
    0.8398               -43.5          27.85          81.26          43.55          9.199          8.176         -11.95          61.63          75.41          90.66          119.7
    0.8818              -43.51          27.84          81.23          43.55          9.196          8.167         -11.94           61.6          75.31          90.67          119.7
    0.9238              -43.52          27.83           81.2          43.54          9.192          8.157         -11.92          61.57           75.2          90.69          119.7
    0.9658              -43.54          27.82          81.16          43.54          9.187          8.146          -11.9          61.53          75.08           90.7          119.7
     1.008              -43.55           27.8          81.12          43.53          9.182          8.133         -11.88          61.48          74.95          90.71          119.7
      1.05              -43.57          27.79          81.07          43.52          9.177           8.12         -11.86          61.43           74.8          90.73          119.6
     1.092              -43.58          27.77          81.02          43.51          9.171          8.104         -11.83          61.38          74.63          90.75          119.6
     1.134               -43.6          27.75          80.96           43.5          9.164          8.087          -11.8          61.32          74.44          90.76          119.6
     1.176              -43.63          27.73           80.9          43.49          9.156          8.067         -11.77          61.25          74.23          90.79          119.6
     1.218              -43.65           27.7          80.83          43.48          9.147          8.045         -11.73          61.17          73.99          90.81          119.5
      1.26              -43.68          27.67          80.74          43.46          9.137           8.02         -11.69          61.08          73.71          90.84          119.5
     1.302              -43.72          27.64          80.64          43.45          9.125           7.99         -11.64          60.97          73.39          90.87          119.4
     1.344              -43.76           27.6          80.53          43.43          9.112          7.957         -11.58          60.85          73.03          90.91          119.4
     1.386               -43.8          27.55           80.4           43.4          9.096          7.918         -11.52          60.71           72.6          90.96          119.3
     1.428              -43.86           27.5          80.25          43.38          9.078          7.872         -11.44          60.55          72.11          91.01          119.3
      1.47              -43.92          27.44          80.07          43.35          9.056          7.818         -11.35          60.36          71.52          91.07          119.2
     1.512               -44.0          27.36          79.86          43.31          9.031          7.754         -11.24          60.13          70.82          91.14          119.1
     1.554              -44.09          27.27          79.61          43.26            9.0          7.677         -11.12          59.86          69.99          91.23          119.0
     1.596              -44.19          27.17           79.3          43.21          8.963          7.584         -10.96          59.52          68.98          91.33          118.8
     1.638              -44.33          27.03          78.92          43.14          8.917           7.47         -10.77          59.12          67.75          91.46          118.7
      1.68              -44.49          26.87          78.46          43.06          8.861           7.33         -10.54          58.62          66.22          91.62          118.4
     1.722               -44.7          26.67          77.88          42.96          8.791          7.155         -10.24           58.0          64.32          91.81          118.2
     1.764              -44.96          26.41          77.15          42.83          8.703          6.935         -9.875          57.21          61.93          92.06          117.8
     1.806              -45.29          26.09          76.23          42.67          8.591          6.654         -9.407          56.21          58.89          92.38          117.4
     1.848              -45.71          25.67          75.04          42.46          8.448          6.296         -8.808          54.94           55.0          92.78          116.9
      1.89              -46.25          25.14          73.52          42.19          8.264          5.836         -8.038           53.3           50.0           93.3          116.2
     1.932              -46.94          24.46          71.58          41.85          8.029          5.248         -7.056           51.2          43.62          93.96          115.3
     1.974               -47.8           23.6          69.13          41.42          7.733          4.509         -5.821          48.57           35.6          94.79          114.2
     2.016              -48.86          22.55          66.15           40.9          7.373          3.609         -4.315          45.36          25.83          95.81          112.8
